HIERARCHY
ROOT Hips
{
	OFFSET 0.00 0.00 0.00
	CHANNELS 6 Xposition Yposition Zposition Xrotation Yrotation Zrotation
	JOINT Spine
	{
		OFFSET 0.00000 7.17041 0.00000
		CHANNELS 3 Xrotation Yrotation Zrotation
		JOINT Head
		{
			OFFSET 0.00000 14.27615 0.00000
			CHANNELS 3 Xrotation Yrotation Zrotation
			End Site
			{
				OFFSET 0.00000 4.52755 0.00000
			}
		}
		JOINT LeftShoulder
		{
			OFFSET 0.00000 10.71824 0.00000
			CHANNELS 3 Xrotation Yrotation Zrotation
			JOINT LeftArm
			{
				OFFSET 7.05887 0.00000 0.00000
				CHANNELS 3 Xrotation Yrotation Zrotation
				JOINT LeftForeArm
				{
					OFFSET 10.95552 0.00000 0.00000
					CHANNELS 3 Yrotation Zrotation Xrotation
					JOINT LeftHand
					{
						OFFSET 8.19372 0.00000 0.00000
						CHANNELS 3 Xrotation Yrotation Zrotation
						JOINT LeftHandThumb1
						{
							OFFSET 0.00000 0.00000 0.00000
							CHANNELS 3 Xrotation Zrotation Yrotation
							End Site
							{
								OFFSET 0.00000 0.00000 3.93700
							}
						}
						End Site
						{
							OFFSET 3.93700 0.00000 0.00000
						}
					}
				}
			}
		}
		JOINT RightShoulder
		{
			OFFSET 0.00000 10.71824 0.00000
			CHANNELS 3 Xrotation Yrotation Zrotation
			JOINT RightArm
			{
				OFFSET -7.05887 0.00000 0.00000
				CHANNELS 3 Xrotation Yrotation Zrotation
				JOINT RightForeArm
				{
					OFFSET -10.95552 0.00000 0.00000
					CHANNELS 3 Yrotation Zrotation Xrotation
					JOINT RightHand
					{
						OFFSET -8.19372 0.00000 0.00000
						CHANNELS 3 Xrotation Yrotation Zrotation
						JOINT RightHandThumb1
						{
							OFFSET 0.00000 0.00000 0.00000
							CHANNELS 3 Xrotation Zrotation Yrotation
							End Site
							{
								OFFSET 0.00000 0.00000 3.93700
							}
						}
						End Site
						{
							OFFSET -3.93700 0.00000 0.00000
						}
					}
				}
			}
		}
	}
	JOINT LeftUpLeg
	{
		OFFSET 4.31835 0.00000 0.00000
		CHANNELS 3 Xrotation Yrotation Zrotation
		JOINT LeftLeg
		{
			OFFSET 0.00000 -17.32364 0.00000
			CHANNELS 3 Xrotation Yrotation Zrotation
			JOINT LeftFoot
			{
				OFFSET 0.00000 -16.27037 0.00000
				CHANNELS 3 Xrotation Yrotation Zrotation
				JOINT LeftToeBase
				{
					OFFSET 0.00000 -1.27412 4.75510
					CHANNELS 3 Xrotation Yrotation Zrotation
					End Site
					{
						OFFSET 0.00000 0.00000 2.95275
					}
				}
			}
		}
	}
	JOINT RightUpLeg
	{
		OFFSET -4.31835 0.00000 0.00000
		CHANNELS 3 Xrotation Yrotation Zrotation
		JOINT RightLeg
		{
			OFFSET 0.00000 -17.32364 0.00000
			CHANNELS 3 Xrotation Yrotation Zrotation
			JOINT RightFoot
			{
				OFFSET 0.00000 -16.27037 0.00000
				CHANNELS 3 Xrotation Yrotation Zrotation
				JOINT RightToeBase
				{
					OFFSET 0.00000 -1.27412 4.75510
					CHANNELS 3 Xrotation Yrotation Zrotation
					End Site
					{
						OFFSET 0.00000 0.00000 2.95275
					}
				}
			}
		}
	}
}
MOTION
Frames: 13
Frame Time: 0.008333
 -5.8725 35.2286 -9.4887 -1.7161 -1.5439 -4.9659 -6.8117 -4.3754 6.4935 0.5004 -20.2092 -11.8410 16.8966 5.5837 -17.8043 -10.1780 -32.9886 -69.2837 -11.4464 0.0000 13.7798 -0.9551 -3.6756 -14.5764 33.1476 -0.0000 26.2537 -17.3750 7.4745 -28.7460 -17.4675 25.9549 -4.4313 83.5295 0.0000 -8.1277 0.9729 9.2854 -6.0082 32.8623 0.0000 -24.3270 9.5561 14.5738 4.2158 -8.2664 -0.0000 -0.0000 -14.7755 28.1390 5.9699 22.6873 0.0000 -0.0000 9.7575 -7.1595 3.2059 -4.1750 -0.0000 -0.0000 -5.8453 -27.2110 -4.6915 12.4247 0.0000 0.0000
 -5.8714 35.2299 -9.4917 -1.7395 -1.6177 -4.9626 -6.8101 -4.3566 6.5030 0.4883 -20.2039 -11.9317 16.9156 5.6110 -17.8639 -10.2022 -32.9827 -69.2357 -11.4751 0.0000 13.9148 -0.9394 -3.6544 -14.4264 33.1476 -0.0000 26.2537 -17.0772 7.5181 -28.9590 -15.5965 26.2158 -5.0234 83.6491 0.0000 -7.6130 0.9324 9.4509 -5.6601 32.8623 0.0000 -24.3270 9.5784 14.5989 4.2000 -8.2479 -0.0000 0.0000 -14.7891 28.1875 5.9812 22.7080 -0.0000 0.0000 9.7670 -7.1316 3.1876 -4.1905 -0.0000 -0.0000 -5.8164 -27.1637 -4.6546 12.4582 0.0000 -0.0000
 -5.8722 35.2313 -9.4948 -1.7629 -1.6813 -4.9602 -6.8137 -4.3474 6.5039 0.4883 -20.2151 -12.0452 16.9326 5.6289 -17.9162 -10.2215 -32.9491 -69.1907 -11.4887 0.0000 13.8843 -0.9396 -3.6631 -14.3967 33.1476 -0.0000 26.2537 -16.7385 7.5561 -29.1563 -13.7658 26.4500 -5.6487 83.7781 0.0000 -7.0998 0.8428 9.3643 -5.1657 32.8623 0.0000 -24.3270 9.5973 14.6003 4.1911 -8.2248 0.0000 0.0000 -14.8239 28.2431 6.0086 22.7498 -0.0000 0.0000 9.7785 -7.1002 3.1756 -4.2039 0.0000 0.0000 -5.7851 -27.1210 -4.6389 12.4015 0.0000 -0.0000
 -5.8698 35.2327 -9.4956 -1.8118 -1.7486 -4.9468 -6.7776 -4.3276 6.4906 0.4504 -20.1264 -12.0627 16.9127 5.6737 -17.9766 -10.2049 -32.9309 -69.1464 -11.5099 0.0000 13.7679 -0.9516 -3.6771 -14.5195 33.1476 -0.0000 26.2537 -16.3819 7.5935 -29.3935 -12.0308 26.5537 -6.1691 83.9297 0.0000 -6.5998 0.7773 9.3791 -4.7590 32.8623 0.0000 -24.3270 9.6487 14.6237 4.1607 -8.2046 0.0000 -0.0000 -14.8297 28.2937 6.0057 22.7577 -0.0000 0.0000 9.8168 -7.0640 3.1441 -4.2191 -0.0000 -0.0000 -5.7602 -27.0934 -4.5895 12.4153 0.0000 -0.0000
 -5.8684 35.2345 -9.4963 -1.8618 -1.8131 -4.9288 -6.7550 -4.3127 6.4643 0.4636 -20.0643 -12.0634 16.9262 5.6907 -18.0439 -10.2082 -32.8637 -69.0823 -11.5473 0.0000 13.7217 -0.9508 -3.6776 -14.5060 33.1476 -0.0000 26.2537 -16.0224 7.6568 -29.6019 -10.3291 26.7042 -6.6732 84.0855 0.0000 -6.0221 0.7197 9.3661 -4.4138 32.8623 0.0000 -24.3270 9.7066 14.6239 4.1279 -8.1857 -0.0000 -0.0000 -14.8096 28.3797 5.9702 22.6489 -0.0000 0.0000 9.8586 -7.0333 3.1109 -4.2399 -0.0000 -0.0000 -5.7239 -27.0590 -4.5691 12.3940 0.0000 -0.0000
 -5.8699 35.2366 -9.4995 -1.8957 -1.8540 -4.9271 -6.7431 -4.3074 6.4448 0.4566 -20.0093 -12.1189 16.9320 5.6954 -18.1135 -10.1991 -32.7806 -69.0035 -11.5912 0.0000 13.6876 -0.9424 -3.6619 -14.4429 33.1476 -0.0000 26.2537 -15.6301 7.7208 -29.7869 -8.6888 26.8096 -7.2010 84.2647 0.0000 -5.4689 0.6522 9.5766 -3.9144 32.8623 0.0000 -24.3270 9.7367 14.5862 4.1247 -8.1646 0.0000 0.0000 -14.8238 28.4615 5.9802 22.6692 -0.0000 0.0000 9.8832 -7.0041 3.1029 -4.2501 0.0000 0.0000 -5.7033 -27.0445 -4.5498 12.3774 -0.0000 0.0000
 -5.8674 35.2388 -9.4987 -1.9552 -1.9234 -4.9078 -6.7077 -4.2864 6.4155 0.4596 -19.9834 -12.1443 16.8700 5.7498 -18.2165 -10.0925 -32.7273 -68.8839 -11.6395 0.0000 13.6447 -0.9381 -3.6436 -14.4483 33.1476 -0.0000 26.2537 -15.2564 7.8389 -29.9900 -7.1522 26.8547 -7.5985 84.5310 0.0000 -4.9871 0.5832 9.7038 -3.4561 32.8623 0.0000 -24.3270 9.8033 14.6490 4.0874 -8.1512 0.0000 0.0000 -14.7901 28.4998 5.8979 22.5968 -0.0000 -0.0000 9.9273 -6.9601 3.0643 -4.2575 0.0000 0.0000 -5.6847 -27.0208 -4.5244 12.3818 0.0000 0.0000
 -5.8666 35.2410 -9.4990 -2.0061 -1.9848 -4.8946 -6.6818 -4.2492 6.3780 0.4696 -20.0152 -12.1347 16.9507 5.7318 -18.3110 -10.1358 -32.6596 -68.7684 -11.6948 0.0000 13.6602 -0.9258 -3.6570 -14.2176 33.1476 -0.0000 26.2537 -14.8325 7.9737 -30.1473 -5.6706 26.7728 -8.0351 84.8600 0.0000 -4.3156 0.5130 9.8681 -2.9908 32.8623 0.0000 -24.3270 9.8542 14.6998 4.0619 -8.1262 -0.0000 -0.0000 -14.7732 28.5262 5.8344 22.5772 0.0000 -0.0000 9.9644 -6.9159 3.0380 -4.2606 0.0000 -0.0000 -5.6637 -27.0092 -4.4969 12.3760 0.0000 -0.0000
 -5.8677 35.2433 -9.5005 -2.0479 -2.0411 -4.8882 -6.6556 -4.2108 6.3427 0.4524 -20.0870 -12.1324 16.9993 5.7397 -18.4006 -10.1426 -32.6549 -68.6603 -11.7258 0.0000 13.3972 -0.9318 -3.6554 -14.3111 33.1476 -0.0000 26.2537 -14.4369 8.0954 -30.2986 -4.1548 26.6418 -8.4737 85.2394 0.0000 -3.9552 0.5080 9.9701 -2.9315 32.8623 0.0000 -24.3270 9.8931 14.7344 4.0499 -8.1038 -0.0000 0.0000 -14.7640 28.5606 5.7805 22.5935 0.0000 -0.0000 9.9881 -6.8727 3.0257 -4.2601 -0.0000 0.0000 -5.6482 -27.0241 -4.4964 12.3703 -0.0000 -0.0000
 -5.8675 35.2447 -9.4998 -2.1112 -2.1148 -4.8842 -6.6038 -4.1372 6.3030 0.3950 -20.2041 -12.1391 17.0535 5.7232 -18.5008 -10.1445 -32.6352 -68.5275 -11.7798 0.0000 13.1699 -0.9044 -3.6249 -14.0190 33.1476 -0.0000 26.2537 -13.9948 8.0855 -30.3646 -2.7250 26.6698 -9.0389 85.5149 0.0000 -3.4065 0.5226 10.0857 -2.9818 32.8623 0.0000 -24.3270 9.9636 14.8341 4.0265 -8.1028 0.0000 0.0000 -14.7392 28.5685 5.7198 22.5470 -0.0000 0.0000 10.0337 -6.8111 3.0092 -4.2636 0.0000 0.0000 -5.6355 -27.0328 -4.4931 12.3782 -0.0000 0.0000
 -5.8661 35.2470 -9.4983 -2.1743 -2.1995 -4.8635 -6.5494 -4.0440 6.2489 0.3368 -20.2326 -12.1185 17.1024 5.7196 -18.6192 -10.1309 -32.6198 -68.3640 -11.8374 0.0000 13.0127 -0.9230 -3.6508 -14.1988 33.1476 -0.0000 26.2537 -13.6431 8.1981 -30.4401 -1.3822 26.5264 -9.4164 85.9470 0.0000 -2.8250 0.5174 10.2769 -2.8979 32.8623 0.0000 -24.3270 10.0043 15.0809 3.9809 -8.0536 -0.0000 0.0000 -14.7093 28.4583 5.6057 22.5396 -0.0000 -0.0000 10.0665 -6.7408 2.9668 -4.2412 0.0000 -0.0000 -5.6350 -27.0172 -4.4835 12.3467 0.0000 0.0000
 -5.8651 35.2484 -9.4972 -2.2526 -2.2774 -4.8521 -6.4493 -3.9635 6.2171 0.1948 -20.2129 -12.1518 17.0616 5.8156 -18.7787 -10.0389 -32.6899 -68.1635 -11.8686 0.0000 12.9471 -0.9300 -3.6644 -14.2519 33.1476 -0.0000 26.2537 -13.2757 8.2666 -30.5526 -0.3221 26.4037 -9.6123 86.4020 0.0000 -2.3614 0.4928 10.5653 -2.6860 32.8623 0.0000 -24.3270 10.0857 15.1991 3.9494 -8.0402 -0.0000 -0.0000 -14.6780 28.4506 5.5236 22.4799 -0.0000 0.0000 10.1182 -6.6778 2.9416 -4.2297 0.0000 -0.0000 -5.6497 -27.0184 -4.5341 12.3892 0.0000 -0.0000
 -5.8641 35.2497 -9.4989 -2.3033 -2.3503 -4.8518 -6.3738 -3.8670 6.2045 0.0300 -20.2478 -12.2285 17.0267 5.8449 -18.9230 -9.9344 -32.7355 -67.9565 -11.9365 0.0000 12.8432 -0.9211 -3.6280 -14.2567 33.1476 -0.0000 26.2537 -13.0421 8.4843 -30.6658 0.7591 26.1307 -9.6747 87.0146 0.0000 -1.7072 0.4628 10.6754 -2.4966 32.8623 0.0000 -24.3270 10.1597 15.2518 3.9294 -8.0710 0.0000 0.0000 -14.6444 28.4811 5.4781 22.4857 -0.0000 0.0000 10.1326 -6.6389 2.9282 -4.1987 -0.0000 0.0000 -5.6529 -27.0127 -4.5354 12.4236 0.0000 -0.0000
